<svg xmlns="http://www.w3.org/2000/svg" viewBox="0 0 449.33 88"><defs><style>.cls-1{fill:none;}.cls-2{fill:#e1082c;}.cls-3{fill:#252627;}</style></defs><title>Zoomit Logo En</title><g id="Layer_2" data-name="Layer 2"><g id="Layer_1-2" data-name="Layer 1"><rect class="cls-1" width="449.33" height="88"/><path class="cls-2" d="M46.72,12.7h73.85a0,0,0,0,1,0,.05L85.18,52.49H67a0,0,0,0,1,0-.05L90.06,26.53a0,0,0,0,0,0-.05H34.5L46.69,12.71h0"/><polygon class="cls-2" points="87.1 75.3 13.16 75.3 48.63 35.49 66.91 35.49 43.7 61.53 99.3 61.53 87.1 75.3"/><polygon class="cls-3" points="168.12 28.03 136.68 28.03 144.5 19.32 188.53 19.32 153.25 59.97 186.03 59.97 180.34 68.68 132.85 68.68 168.12 28.03"/><path class="cls-3" d="M206.51,68.68A14.52,14.52,0,0,1,192,54.16V33.84a14.52,14.52,0,0,1,14.52-14.52h20.32a14.52,14.52,0,0,1,14.52,14.52V54.16a14.52,14.52,0,0,1-14.52,14.52Zm-5.81-14.52A5.8,5.8,0,0,0,206.51,60h20.32a5.8,5.8,0,0,0,5.81-5.81V33.84A5.8,5.8,0,0,0,226.84,28H206.51a5.8,5.8,0,0,0-5.81,5.81Z"/><path class="cls-3" d="M264.9,68.68a14.52,14.52,0,0,1-14.52-14.52V33.84A14.52,14.52,0,0,1,264.9,19.32h20.32a14.52,14.52,0,0,1,14.52,14.52V54.16a14.52,14.52,0,0,1-14.52,14.52Zm-5.81-14.52A5.8,5.8,0,0,0,264.9,60h20.32A5.8,5.8,0,0,0,291,54.16V33.84A5.8,5.8,0,0,0,285.22,28H264.9a5.8,5.8,0,0,0-5.81,5.81Z"/><rect class="cls-3" x="370.3" y="19.32" width="8.71" height="49.36"/><polygon class="cls-3" points="415.85 28.03 415.85 68.68 407.14 68.68 407.14 28.03 386.81 28.03 386.81 19.32 436.17 19.32 436.17 28.03 415.85 28.03"/><polygon class="cls-3" points="352.09 19.32 334.96 35.96 317.83 19.32 308.83 19.32 308.83 68.69 317.54 68.69 317.54 30.59 334.96 47.11 352.38 30.59 352.38 68.69 361.09 68.69 361.09 19.32 352.09 19.32"/></g></g></svg>